<svg width="61" height="60" viewBox="0 0 61 60" fill="none" xmlns="http://www.w3.org/2000/svg">
<path d="M15.5591 5.61694C15.6816 5.13164 16.3711 5.13164 16.4936 5.61694C17.4909 9.56851 20.5764 12.654 24.528 13.6513C25.0133 13.7738 25.0133 14.4633 24.528 14.5858C20.5764 15.5831 17.4909 18.6686 16.4936 22.6202C16.3711 23.1055 15.6816 23.1055 15.5591 22.6202C14.5618 18.6686 11.4763 15.5831 7.52471 14.5858C7.03942 14.4633 7.03941 13.7738 7.52471 13.6513C11.4763 12.654 14.5618 9.56851 15.5591 5.61694Z" fill="white"/>
<path d="M29.625 3.45752C29.8537 2.55118 31.1415 2.55117 31.3703 3.45752L33.5195 11.9731C35.3821 19.3531 41.1446 25.1155 48.5245 26.9781L57.0401 29.1274C57.9464 29.3561 57.9464 30.6439 57.0401 30.8726L48.5245 33.0219C41.1446 34.8845 35.3821 40.6469 33.5195 48.0269L31.3703 56.5425C31.1415 57.4488 29.8537 57.4488 29.625 56.5425L27.4758 48.0269C25.6131 40.6469 19.8507 34.8845 12.4707 33.0219L3.95514 30.8726C3.0488 30.6439 3.04879 29.3561 3.95514 29.1274L12.4707 26.9781C19.8507 25.1155 25.6131 19.3531 27.4758 11.9731L29.625 3.45752Z" fill="#65BD5D"/>
<rect x="22.2418" y="27.3125" width="1.15508" height="5.19786" rx="0.57754" fill="white"/>
<rect x="23.9761" y="26.543" width="1.15508" height="6.73797" rx="0.57754" fill="white"/>
<rect x="25.7086" y="24.0391" width="1.15508" height="11.7433" rx="0.57754" fill="white"/>
<rect x="27.439" y="26.9297" width="1.15508" height="5.96791" rx="0.57754" fill="white"/>
<rect x="29.1734" y="22.5" width="1.15508" height="14.8235" rx="0.57754" fill="white"/>
<rect x="30.9058" y="25.5781" width="1.15508" height="8.6631" rx="0.57754" fill="white"/>
<rect x="32.6382" y="26.543" width="1.15508" height="6.73797" rx="0.57754" fill="white"/>
<rect x="34.3707" y="24.0391" width="1.15508" height="11.7433" rx="0.57754" fill="white"/>
<rect x="36.1031" y="27.1211" width="1.15508" height="5.58289" rx="0.57754" fill="white"/>
<rect x="37.8355" y="27.8906" width="1.15508" height="4.04278" rx="0.57754" fill="white"/>
<rect x="39.6754" y="28.3828" width="1.17647" height="3.05882" rx="0.588235" fill="white"/>
<rect width="1.17647" height="3.05882" rx="0.588235" transform="matrix(-1 0 0 1 21.5582 28.3828)" fill="white"/>
<rect x="41.5582" y="29.3203" width="1.17647" height="1.17647" rx="0.588235" fill="white"/>
<rect width="1.17647" height="1.17647" rx="0.588235" transform="matrix(-1 0 0 1 19.6754 29.3203)" fill="white"/>
</svg>
