<svg width="180" height="121" viewBox="0 0 180 121" fill="none" xmlns="http://www.w3.org/2000/svg">
<mask id="path-1-inside-1_748_9919" fill="white">
<path fill-rule="evenodd" clip-rule="evenodd" d="M134.974 98.3521C147.338 98.1926 157.312 88.1201 157.312 75.718C157.312 63.4021 147.476 53.3834 135.231 53.0887C131.183 43.6277 121.79 36.9986 110.849 36.9986C108.445 36.9986 106.115 37.3186 103.901 37.9184C98.7549 29.0014 89.1214 23 78.0861 23C64.9691 23 53.8324 31.4794 49.8587 43.2558C34.8178 43.4587 22.6875 55.7146 22.6875 70.8036C22.6875 85.9696 34.9419 98.2734 50.089 98.3536V98.354L50.2379 98.354L134.676 98.354H134.974V98.3521Z"/>
</mask>
<path fill-rule="evenodd" clip-rule="evenodd" d="M134.974 98.3521C147.338 98.1926 157.312 88.1201 157.312 75.718C157.312 63.4021 147.476 53.3834 135.231 53.0887C131.183 43.6277 121.79 36.9986 110.849 36.9986C108.445 36.9986 106.115 37.3186 103.901 37.9184C98.7549 29.0014 89.1214 23 78.0861 23C64.9691 23 53.8324 31.4794 49.8587 43.2558C34.8178 43.4587 22.6875 55.7146 22.6875 70.8036C22.6875 85.9696 34.9419 98.2734 50.089 98.3536V98.354L50.2379 98.354L134.676 98.354H134.974V98.3521Z" fill="white"/>
<path d="M134.974 98.3521L134.936 95.3739L131.996 95.4118V98.3521H134.974ZM135.231 53.0887L132.493 54.2602L133.246 56.0202L135.159 56.0663L135.231 53.0887ZM103.901 37.9184L101.321 39.4072L102.467 41.3926L104.68 40.7932L103.901 37.9184ZM49.8587 43.2558L49.8989 46.2339L52.0068 46.2055L52.6808 44.2081L49.8587 43.2558ZM50.089 98.3536H53.0675V95.3909L50.1048 95.3752L50.089 98.3536ZM50.089 98.354H47.1106V101.333L50.0892 101.332L50.089 98.354ZM50.2379 98.354V95.3756H50.2378L50.2379 98.354ZM134.676 98.354V101.332V98.354ZM134.974 98.354V101.332H137.952V98.354H134.974ZM135.012 101.33C149.004 101.15 160.29 89.7521 160.29 75.718H154.334C154.334 86.488 145.672 95.2354 134.936 95.3739L135.012 101.33ZM160.29 75.718C160.29 61.7811 149.16 50.4446 135.303 50.1111L135.159 56.0663C145.792 56.3221 154.334 65.023 154.334 75.718H160.29ZM137.969 51.9172C133.47 41.3992 123.024 34.0202 110.849 34.0202V39.977C120.556 39.977 128.897 45.8562 132.493 54.2602L137.969 51.9172ZM110.849 34.0202C108.179 34.0202 105.588 34.3757 103.122 35.0436L104.68 40.7932C106.642 40.2616 108.71 39.977 110.849 39.977V34.0202ZM106.481 36.4297C100.824 26.6287 90.2286 20.0216 78.0861 20.0216V25.9784C88.0141 25.9784 96.6853 31.3741 101.321 39.4072L106.481 36.4297ZM78.0861 20.0216C63.6527 20.0216 51.4065 29.353 47.0366 42.3035L52.6808 44.2081C56.2583 33.6058 66.2854 25.9784 78.0861 25.9784V20.0216ZM49.8185 40.2776C33.1508 40.5025 19.7091 54.0831 19.7091 70.8036H25.666C25.666 57.346 36.4849 46.4149 49.8989 46.2339L49.8185 40.2776ZM19.7091 70.8036C19.7091 87.6092 33.2882 101.243 50.0733 101.332L50.1048 95.3752C36.5955 95.3037 25.666 84.3299 25.666 70.8036H19.7091ZM53.0675 98.354V98.3536H47.1106V98.354H53.0675ZM50.2378 95.3756L50.0889 95.3756L50.0892 101.332L50.2381 101.332L50.2378 95.3756ZM134.676 95.3756L50.2379 95.3756V101.332L134.676 101.332V95.3756ZM134.974 95.3756H134.676V101.332H134.974V95.3756ZM131.996 98.3521V98.354H137.952V98.3521H131.996Z" fill="#65BD5D" mask="url(#path-1-inside-1_748_9919)"/>
<mask id="mask0_748_9919" style="mask-type:alpha" maskUnits="userSpaceOnUse" x="22" y="23" width="136" height="76">
<mask id="path-3-inside-2_748_9919" fill="white">
<path fill-rule="evenodd" clip-rule="evenodd" d="M134.974 98.3521C147.338 98.1926 157.312 88.1201 157.312 75.718C157.312 63.4021 147.476 53.3834 135.231 53.0887C131.183 43.6277 121.79 36.9986 110.849 36.9986C108.445 36.9986 106.115 37.3186 103.901 37.9184C98.7548 29.0014 89.1213 23 78.0861 23C64.969 23 53.8324 31.4794 49.8586 43.2558C34.8178 43.4587 22.6875 55.7146 22.6875 70.8036C22.6875 85.9696 34.9418 98.2734 50.089 98.3536V98.354L50.2379 98.354L134.676 98.354H134.974V98.3521Z"/>
</mask>
<path d="M134.974 98.3521L134.782 83.4612L120.082 83.6508V98.3521H134.974ZM135.231 53.0887L121.539 58.9463L125.304 67.7462L134.873 67.9765L135.231 53.0887ZM103.901 37.9184L91.0026 45.3621L96.7316 55.2892L107.794 52.2925L103.901 37.9184ZM49.8586 43.2558L50.0595 58.1465L60.599 58.0043L63.9691 48.0171L49.8586 43.2558ZM50.089 98.3536H64.9811V83.5401L50.1678 83.4617L50.089 98.3536ZM50.089 98.354H35.1969V113.247L50.0897 113.246L50.089 98.354ZM50.2379 98.354L50.2379 83.4619H50.2371L50.2379 98.354ZM134.676 98.354L134.676 113.246H134.676V98.354ZM134.974 98.354V113.246H149.866V98.354H134.974ZM135.166 113.243C155.669 112.978 172.204 96.2804 172.204 75.718H142.42C142.42 79.9597 139.008 83.4067 134.782 83.4612L135.166 113.243ZM172.204 75.718C172.204 55.2974 155.898 38.6897 135.589 38.2009L134.873 67.9765C139.055 68.0771 142.42 71.5067 142.42 75.718H172.204ZM148.923 47.2311C142.614 32.4851 127.96 22.1065 110.849 22.1065V51.8907C115.62 51.8907 119.753 54.7703 121.539 58.9463L148.923 47.2311ZM110.849 22.1065C107.118 22.1065 103.479 22.6038 100.007 23.5443L107.794 52.2925C108.751 52.0334 109.772 51.8907 110.849 51.8907V22.1065ZM116.799 30.4747C109.103 17.138 94.6577 8.1079 78.0861 8.1079V37.8921C83.5849 37.8921 88.4071 40.8647 91.0026 45.3621L116.799 30.4747ZM78.0861 8.1079C58.3874 8.1079 41.7029 20.8473 35.7482 38.4945L63.9691 48.0171C65.9618 42.1115 71.5506 37.8921 78.0861 37.8921V8.1079ZM49.6577 28.3651C26.4824 28.6777 7.7954 47.5572 7.7954 70.8036H37.5796C37.5796 63.872 43.1532 58.2397 50.0595 58.1465L49.6577 28.3651ZM7.7954 70.8036C7.7954 94.1679 26.6736 113.122 50.0102 113.245L50.1678 83.4617C43.2101 83.4249 37.5796 77.7713 37.5796 70.8036H7.7954ZM64.9811 98.354V98.3536H35.1969V98.354H64.9811ZM50.2371 83.4619L50.0882 83.4619L50.0897 113.246L50.2386 113.246L50.2371 83.4619ZM134.676 83.4619L50.2379 83.4619L50.2379 113.246L134.676 113.246L134.676 83.4619ZM134.974 83.4619H134.676V113.246H134.974V83.4619ZM120.082 98.3521V98.354H149.866V98.3521H120.082Z" fill="#65BD5D" mask="url(#path-3-inside-2_748_9919)"/>
</mask>
<g mask="url(#mask0_748_9919)">
<g filter="url(#filter0_f_748_9919)">
<mask id="path-5-inside-3_748_9919" fill="white">
<path fill-rule="evenodd" clip-rule="evenodd" d="M134.974 98.3521C147.338 98.1926 157.312 88.1201 157.312 75.718C157.312 63.4021 147.476 53.3834 135.231 53.0887C131.183 43.6277 121.79 36.9986 110.849 36.9986C108.445 36.9986 106.115 37.3186 103.901 37.9184C98.7549 29.0014 89.1214 23 78.0861 23C64.9691 23 53.8324 31.4794 49.8587 43.2558C34.8178 43.4587 22.6875 55.7146 22.6875 70.8036C22.6875 85.9696 34.9419 98.2734 50.089 98.3536V98.354L50.2379 98.354L134.676 98.354H134.974V98.3521Z"/>
</mask>
<path d="M134.974 98.3521L134.782 83.4612L120.082 83.6508V98.3521H134.974ZM135.231 53.0887L121.539 58.9463L125.304 67.7462L134.873 67.9765L135.231 53.0887ZM103.901 37.9184L91.0026 45.3621L96.7316 55.2892L107.795 52.2925L103.901 37.9184ZM49.8587 43.2558L50.0596 58.1465L60.5991 58.0043L63.9691 48.0171L49.8587 43.2558ZM50.089 98.3536H64.9811V83.5401L50.1678 83.4617L50.089 98.3536ZM50.089 98.354H35.1969V113.247L50.0898 113.246L50.089 98.354ZM50.2379 98.354L50.2379 83.4619H50.2372L50.2379 98.354ZM134.676 98.354V113.246V98.354ZM134.974 98.354V113.246H149.866V98.354H134.974ZM135.166 113.243C155.669 112.978 172.204 96.2804 172.204 75.718H142.42C142.42 79.9597 139.008 83.4067 134.782 83.4612L135.166 113.243ZM172.204 75.718C172.204 55.2974 155.898 38.6897 135.589 38.2009L134.873 67.9765C139.055 68.0771 142.42 71.5067 142.42 75.718H172.204ZM148.923 47.2311C142.614 32.4851 127.96 22.1065 110.849 22.1065V51.8907C115.62 51.8907 119.753 54.7703 121.539 58.9463L148.923 47.2311ZM110.849 22.1065C107.118 22.1065 103.479 22.6038 100.007 23.5443L107.795 52.2925C108.751 52.0334 109.772 51.8907 110.849 51.8907V22.1065ZM116.799 30.4747C109.103 17.138 94.6578 8.1079 78.0861 8.1079V37.8921C83.5849 37.8921 88.4072 40.8647 91.0026 45.3621L116.799 30.4747ZM78.0861 8.1079C58.3875 8.1079 41.703 20.8473 35.7482 38.4945L63.9691 48.0171C65.9619 42.1115 71.5506 37.8921 78.0861 37.8921V8.1079ZM49.6578 28.3651C26.4824 28.6777 7.79545 47.5572 7.79545 70.8036H37.5796C37.5796 63.872 43.1533 58.2397 50.0596 58.1465L49.6578 28.3651ZM7.79545 70.8036C7.79545 94.1679 26.6736 113.122 50.0102 113.245L50.1678 83.4617C43.2101 83.4249 37.5796 77.7713 37.5796 70.8036H7.79545ZM64.9811 98.354V98.3536H35.1969V98.354H64.9811ZM50.2372 83.4619L50.0883 83.4619L50.0898 113.246L50.2387 113.246L50.2372 83.4619ZM134.676 83.4619L50.2379 83.4619L50.2379 113.246L134.676 113.246V83.4619ZM134.974 83.4619H134.676V113.246H134.974V83.4619ZM120.082 98.3521V98.354H149.866V98.3521H120.082Z" fill="#65BD5D" mask="url(#path-5-inside-3_748_9919)"/>
</g>
</g>
<mask id="path-7-inside-4_748_9919" fill="white">
<path fill-rule="evenodd" clip-rule="evenodd" d="M55.946 54.9308C55.946 55.7685 55.2669 56.4476 54.4292 56.4476C53.7987 56.4476 53.2581 56.063 53.0292 55.5155H51.8094C43.5268 55.5155 36.8125 62.2298 36.8125 70.5124C36.8125 78.795 43.5268 85.5093 51.8094 85.5093H70.318C70.4607 84.8197 71.0715 84.3014 71.8033 84.3014C72.641 84.3014 73.3201 84.9805 73.3201 85.8182C73.3201 86.6559 72.641 87.3349 71.8033 87.3349C71.1728 87.3349 70.6322 86.9503 70.4033 86.4028H51.8094C43.0333 86.4028 35.9189 79.2884 35.9189 70.5124C35.9189 61.7364 43.0333 54.622 51.8094 54.622H52.9439C53.0865 53.9324 53.6973 53.4141 54.4292 53.4141C55.2669 53.4141 55.946 54.0932 55.946 54.9308ZM72.4266 85.8182C72.4266 86.1624 72.1475 86.4414 71.8033 86.4414C71.4591 86.4414 71.1801 86.1624 71.1801 85.8182C71.1801 85.4739 71.4591 85.1949 71.8033 85.1949C72.1475 85.1949 72.4266 85.4739 72.4266 85.8182Z"/>
</mask>
<path fill-rule="evenodd" clip-rule="evenodd" d="M55.946 54.9308C55.946 55.7685 55.2669 56.4476 54.4292 56.4476C53.7987 56.4476 53.2581 56.063 53.0292 55.5155H51.8094C43.5268 55.5155 36.8125 62.2298 36.8125 70.5124C36.8125 78.795 43.5268 85.5093 51.8094 85.5093H70.318C70.4607 84.8197 71.0715 84.3014 71.8033 84.3014C72.641 84.3014 73.3201 84.9805 73.3201 85.8182C73.3201 86.6559 72.641 87.3349 71.8033 87.3349C71.1728 87.3349 70.6322 86.9503 70.4033 86.4028H51.8094C43.0333 86.4028 35.9189 79.2884 35.9189 70.5124C35.9189 61.7364 43.0333 54.622 51.8094 54.622H52.9439C53.0865 53.9324 53.6973 53.4141 54.4292 53.4141C55.2669 53.4141 55.946 54.0932 55.946 54.9308ZM72.4266 85.8182C72.4266 86.1624 72.1475 86.4414 71.8033 86.4414C71.4591 86.4414 71.1801 86.1624 71.1801 85.8182C71.1801 85.4739 71.4591 85.1949 71.8033 85.1949C72.1475 85.1949 72.4266 85.4739 72.4266 85.8182Z" fill="#65BD5D"/>
<path d="M53.0292 55.5155L53.7925 55.1964L53.58 54.6882H53.0292V55.5155ZM70.318 85.5093V86.3366H70.9917L71.1282 85.6769L70.318 85.5093ZM70.4033 86.4028L71.1666 86.0837L70.9541 85.5755H70.4033V86.4028ZM52.9439 54.622V55.4493H53.6176L53.754 54.7896L52.9439 54.622ZM54.4292 57.275C55.7238 57.275 56.7733 56.2255 56.7733 54.9308H55.1186C55.1186 55.3116 54.8099 55.6203 54.4292 55.6203V57.275ZM52.2659 55.8346C52.6189 56.6791 53.4535 57.275 54.4292 57.275V55.6203C54.1439 55.6203 53.8972 55.4468 53.7925 55.1964L52.2659 55.8346ZM51.8094 56.3428H53.0292V54.6882H51.8094V56.3428ZM37.6398 70.5124C37.6398 62.6868 43.9837 56.3428 51.8094 56.3428V54.6882C43.0699 54.6882 35.9851 61.7729 35.9851 70.5124H37.6398ZM51.8094 84.682C43.9837 84.682 37.6398 78.338 37.6398 70.5124H35.9851C35.9851 79.2519 43.0699 86.3366 51.8094 86.3366V84.682ZM70.318 84.682H51.8094V86.3366H70.318V84.682ZM71.8033 83.474C70.6713 83.474 69.7283 84.2756 69.5078 85.3417L71.1282 85.6769C71.193 85.3638 71.4716 85.1287 71.8033 85.1287V83.474ZM74.1474 85.8182C74.1474 84.5235 73.0979 83.474 71.8033 83.474V85.1287C72.1841 85.1287 72.4928 85.4374 72.4928 85.8182H74.1474ZM71.8033 88.1623C73.0979 88.1623 74.1474 87.1128 74.1474 85.8182H72.4928C72.4928 86.1989 72.1841 86.5076 71.8033 86.5076V88.1623ZM69.64 86.722C69.9931 87.5664 70.8276 88.1623 71.8033 88.1623V86.5076C71.518 86.5076 71.2713 86.3341 71.1666 86.0837L69.64 86.722ZM51.8094 87.2302H70.4033V85.5755H51.8094V87.2302ZM35.0916 70.5124C35.0916 79.7454 42.5764 87.2302 51.8094 87.2302V85.5755C43.4902 85.5755 36.7463 78.8315 36.7463 70.5124H35.0916ZM51.8094 53.7946C42.5764 53.7946 35.0916 61.2794 35.0916 70.5124H36.7463C36.7463 62.1933 43.4903 55.4493 51.8094 55.4493V53.7946ZM52.9439 53.7946H51.8094V55.4493H52.9439V53.7946ZM54.4292 52.5867C53.2971 52.5867 52.3542 53.3883 52.1337 54.4544L53.754 54.7896C53.8188 54.4765 54.0975 54.2414 54.4292 54.2414V52.5867ZM56.7733 54.9308C56.7733 53.6362 55.7238 52.5867 54.4292 52.5867V54.2414C54.8099 54.2414 55.1186 54.5501 55.1186 54.9308H56.7733ZM71.8033 87.2688C72.6045 87.2688 73.2539 86.6193 73.2539 85.8182H71.5992C71.5992 85.7054 71.6906 85.6141 71.8033 85.6141V87.2688ZM70.3527 85.8182C70.3527 86.6193 71.0022 87.2688 71.8033 87.2688V85.6141C71.916 85.6141 72.0074 85.7054 72.0074 85.8182H70.3527ZM71.8033 84.3676C71.0022 84.3676 70.3527 85.017 70.3527 85.8182H72.0074C72.0074 85.9309 71.916 86.0222 71.8033 86.0222V84.3676ZM73.2539 85.8182C73.2539 85.017 72.6045 84.3676 71.8033 84.3676V86.0222C71.6906 86.0222 71.5992 85.9309 71.5992 85.8182H73.2539Z" fill="#65BD5D" mask="url(#path-7-inside-4_748_9919)"/>
<circle cx="78.5327" cy="85.9936" r="1.19137" fill="#65BD5D" stroke="#65BD5D" stroke-width="0.893526"/>
<circle cx="58.2797" cy="53.8256" r="1.19137" stroke="#65BD5D" stroke-width="0.893526"/>
<path d="M58.1309 52.6356C58.1309 42.1903 66.5985 33.7227 77.0438 33.7227C84.8604 33.7227 91.5694 38.4645 94.4513 45.2285C95.4862 47.6576 98.8437 49.1256 101.329 48.2332C103.326 47.5162 105.478 47.1255 107.722 47.1255C115.628 47.1255 122.401 51.9771 125.227 58.8656C126.288 61.452 130.232 63.2561 133.001 62.8762C133.549 62.801 134.108 62.7622 134.676 62.7622C141.42 62.7622 146.888 68.2295 146.888 74.9737C146.888 81.718 141.42 87.1853 134.676 87.1853C134.113 87.1853 133.559 87.1472 133.017 87.0735C132.848 87.0505 132.678 87.0363 132.507 87.0363L79.5755 86.1428" stroke="#65BD5D" stroke-width="0.893526"/>
<path d="M67.7597 79.2143C66.9298 79.2143 66.2239 79.0941 65.6422 78.8536C65.0682 78.621 64.599 78.3301 64.2344 77.9811C63.8777 77.6398 63.6178 77.2714 63.4549 76.8758C63.2921 76.488 63.2106 76.1389 63.2106 75.8287C63.2106 75.5262 63.261 75.247 63.3619 74.991C63.4627 74.7351 63.6023 74.514 63.7807 74.3278C63.9591 74.1417 64.1685 73.9943 64.409 73.8857C64.6494 73.7849 64.9092 73.7345 65.1885 73.7345C66.3597 73.7345 66.9453 74.3162 66.9453 75.4797C66.9453 76.3018 66.573 76.8642 65.8284 77.1667C66.3093 77.4071 66.9685 77.5273 67.8062 77.5273C68.194 77.5273 68.5586 77.411 68.8999 77.1783C69.2411 76.9456 69.5398 76.6276 69.7957 76.2243C70.0517 75.8287 70.2533 75.3594 70.4007 74.8165C70.5481 74.2813 70.6218 73.7073 70.6218 73.0946C70.6218 71.5046 70.0013 70.6126 68.7602 70.4187C68.2328 70.4885 67.6744 70.6552 67.0849 70.919H66.2588L65.584 69.3716L67.8993 68.2547C68.6051 67.9134 69.1326 67.4829 69.4816 66.9632C69.8384 66.4358 70.0168 65.8269 70.0168 65.1366C70.0168 64.9505 69.978 64.7721 69.9004 64.6014C69.8229 64.423 69.7143 64.2718 69.5747 64.1477C69.435 64.0158 69.2683 63.9111 69.0744 63.8336C68.8805 63.756 68.6672 63.7172 68.4345 63.7172C68.1863 63.7172 67.942 63.756 67.7015 63.8336C67.4688 63.9034 67.2594 64.0042 67.0733 64.1361C66.8949 64.2602 66.7475 64.4153 66.6311 64.6014C66.5226 64.7798 66.4683 64.9737 66.4683 65.1832C66.4683 65.9123 66.6428 66.525 66.9918 67.0214C66.7359 67.5256 66.3636 67.8009 65.8749 67.8475C64.7813 67.1494 64.2344 66.1876 64.2344 64.9621C64.2344 64.4269 64.3353 63.9383 64.5369 63.4962C64.7386 63.0463 65.0333 62.6624 65.4212 62.3444C65.809 62.0186 66.2899 61.7665 66.8638 61.5881C67.4456 61.4097 68.1165 61.3205 68.8766 61.3205C72.5608 61.3205 74.403 62.577 74.403 65.0901C74.403 65.7649 74.209 66.397 73.8212 66.9865C73.4412 67.576 72.9215 68.0685 72.2622 68.4641C74.1005 69.1079 75.0196 70.5466 75.0196 72.7805C75.0196 74.642 74.2866 76.1777 72.8207 77.3877C71.3625 78.6054 69.6755 79.2143 67.7597 79.2143ZM67.6899 78.0043C66.7203 78.0043 65.9525 77.7755 65.3863 77.3179C64.82 76.868 64.5369 76.3639 64.5369 75.8054C64.5369 75.2392 64.7386 74.8902 65.1419 74.7583C65.2505 74.6032 65.2505 74.4209 65.1419 74.2115C64.7231 74.2115 64.3779 74.3589 64.1065 74.6536C63.8428 74.9483 63.7109 75.3633 63.7109 75.8985C63.7109 76.5655 64.0832 77.2054 64.8278 77.8182C65.5724 78.4309 66.5342 78.7373 67.7131 78.7373C69.0627 78.7373 70.3425 78.1633 71.5525 77.0154C72.7703 75.8752 73.3791 74.4636 73.3791 72.7805C73.3791 71.4309 73.0262 70.4264 72.3204 69.7671C71.6146 69.1079 70.7614 68.7394 69.7608 68.6619V68.5455C70.583 68.2896 71.2888 67.8397 71.8783 67.1959C72.4678 66.5522 72.7625 65.8502 72.7625 65.0901C72.7625 63.9577 72.4096 63.1277 71.7038 62.6003C70.9979 62.0651 70.0556 61.7975 68.8766 61.7975C67.527 61.7975 66.4954 62.0923 65.7818 62.6818C65.0682 63.2712 64.7115 64.0314 64.7115 64.9621C64.7115 66.0015 65.1381 66.7965 65.9912 67.3472C66.2007 67.3161 66.3519 67.2153 66.445 67.0447C66.0339 66.5793 65.8284 65.9588 65.8284 65.1832C65.8284 64.5937 66.0417 64.1167 66.4683 63.7521C66.8949 63.3876 67.5464 63.2053 68.4228 63.2053C69.0278 63.2053 69.5242 63.3992 69.9121 63.787C70.2999 64.1748 70.4938 64.6247 70.4938 65.1366C70.4938 66.7267 69.7026 67.9095 68.1204 68.6851L66.2123 69.6159L66.4915 70.3023C67.1431 70.0309 67.7481 69.8951 68.3065 69.8951C69.0976 69.8951 69.7608 70.1394 70.296 70.6281C70.8312 71.109 71.0988 71.9311 71.0988 73.0946C71.0988 74.5683 70.7846 75.755 70.1564 76.6547C69.5281 77.5545 68.706 78.0043 67.6899 78.0043Z" fill="#0D7B03"/>
<path d="M81.982 66.0451C81.954 66.6804 81.1827 67.0678 79.6679 67.2074C79.612 67.3191 79.612 67.4831 79.6679 67.6995C80.9872 67.6577 81.9226 67.6367 82.4741 67.6367C83.3467 67.6367 84.3414 67.6577 85.4583 67.6995C85.5142 67.4831 85.5142 67.3191 85.4583 67.2074C83.9296 67.0678 83.1582 66.6804 83.1442 66.0451C83.0744 63.8741 83.0395 61.9824 83.0395 60.3698C83.0395 58.1639 83.0675 56.2129 83.1233 54.5165H83.228L88.3379 67.3749H88.4426L93.2173 54.7679H93.3116C93.3814 56.869 93.4163 58.7364 93.4163 60.3698C93.4163 62.6386 93.3814 64.5757 93.3116 66.1812C93.2976 66.3627 93.2139 66.5198 93.0603 66.6524C92.9137 66.7781 92.6938 66.8793 92.4006 66.9561C92.1074 67.0259 91.8596 67.0748 91.6572 67.1027C91.4547 67.1306 91.1964 67.1585 90.8823 67.1865C90.8265 67.2982 90.8265 67.4622 90.8823 67.6786C92.069 67.6367 93.2837 67.6158 94.5262 67.6158C96.0131 67.6158 97.4441 67.6367 98.8193 67.6786C98.8752 67.553 98.8752 67.3889 98.8193 67.1865C96.5018 67.0469 95.336 66.7188 95.322 66.2022C95.2383 64.0103 95.1964 61.8079 95.1964 59.595C95.1964 57.4519 95.2243 55.5008 95.2801 53.7417C95.2941 53.2251 96.4599 52.897 98.7775 52.7574C98.8333 52.555 98.8333 52.3909 98.7775 52.2653C97.4023 52.3072 95.5733 52.3281 93.2906 52.3281L88.83 63.9719L84.5369 52.3281C82.8336 52.3281 81.3258 52.3002 80.0134 52.2443C79.9436 52.384 79.9436 52.5166 80.0134 52.6422C80.8441 52.7609 81.3851 52.9354 81.6364 53.1658C81.8947 53.3892 82.0308 53.9092 82.0448 54.726C82.0937 56.4432 82.1181 58.0662 82.1181 59.595C82.1181 61.7101 82.0727 63.8602 81.982 66.0451ZM81.5526 66.0451C81.6434 63.8462 81.6888 61.6962 81.6888 59.595C81.6888 58.0662 81.6643 56.4432 81.6155 54.726C81.6015 54.0837 81.4759 53.6719 81.2385 53.4904C81.0082 53.3019 80.5055 53.1553 79.7307 53.0506C79.5352 52.6248 79.5422 52.2059 79.7516 51.7941C81.3572 51.8639 83.4444 51.8988 86.0133 51.8988L89.4478 61.0714L92.987 51.8988C94.8578 51.8988 96.9241 51.8709 99.1858 51.815C99.3254 52.2688 99.3394 52.719 99.2277 53.1658C97.685 53.3194 96.9066 53.5253 96.8927 53.7836C96.8298 55.0959 96.7984 57.0331 96.7984 59.595C96.7984 62.2407 96.8438 64.4291 96.9346 66.1603C96.9485 66.4186 97.7269 66.6245 99.2696 66.7781C99.3813 67.2249 99.3673 67.6751 99.2277 68.1289C96.966 68.073 95.6501 68.0451 95.2801 68.0451C94.7217 68.0451 93.158 68.073 90.5891 68.1289C90.4146 67.6402 90.4146 67.19 90.5891 66.7781C92.1039 66.6245 92.8683 66.4256 92.8823 66.1812C92.9521 64.5478 92.987 62.6106 92.987 60.3698C92.987 58.6247 92.98 57.3437 92.966 56.527L88.7358 67.8043H88.0342L83.4688 56.2966V60.3698C83.4688 61.9824 83.5037 63.8741 83.5736 66.0451C83.5875 66.4221 84.3519 66.6734 85.8667 66.799C86.0412 67.2179 86.0412 67.6681 85.8667 68.1498C83.7795 68.066 81.612 68.066 79.3642 68.1498C79.1967 67.6681 79.1967 67.2179 79.3642 66.799C80.8092 66.6594 81.5387 66.4081 81.5526 66.0451Z" fill="#0D7B03"/>
<path d="M85.5745 73.4947L85.5173 73.795C85.1456 73.795 84.8787 73.8569 84.7167 73.9808L82.3864 75.7965L84.2735 79.2133C84.3783 79.3944 84.6643 79.4849 85.1313 79.4849L85.0741 79.7852H83.6302C83.2394 79.7852 82.9249 79.5564 82.6866 79.0989L81.0568 76.1539L83.959 73.8807C83.8351 73.8236 83.6063 73.795 83.2727 73.795L83.3299 73.4947H85.5745ZM80.3992 71.7935C79.8082 71.7458 79.508 71.722 79.4985 71.722L79.5557 71.3932C79.7368 71.3932 80.1085 71.2931 80.6708 71.0929C81.2331 70.8833 81.6239 70.7784 81.8431 70.7784L80.342 79.7852H79.0553L80.3992 71.7935ZM87.0478 77.269C87.0478 78.0219 87.2003 78.5843 87.5053 78.956C87.8198 79.3181 88.2534 79.4992 88.8062 79.4992C89.4734 79.4992 90.0119 79.1418 90.4217 78.427C90.8411 77.7026 91.0508 76.8544 91.0508 75.8822C91.0508 74.4907 90.4456 73.795 89.2351 73.795C88.587 73.795 88.0581 74.1476 87.6482 74.8529C87.2479 75.5582 87.0478 76.3635 87.0478 77.269ZM88.5489 79.9281C87.6149 79.9281 86.9 79.6898 86.4044 79.2133C85.9088 78.7368 85.661 78.0886 85.661 77.269C85.661 76.1253 85.9994 75.1865 86.6761 74.4526C87.3528 73.7187 88.3106 73.3518 89.5496 73.3518C90.5123 73.3518 91.2319 73.5757 91.7084 74.0237C92.1945 74.4717 92.4375 75.0959 92.4375 75.8965C92.4375 77.0593 92.0992 78.0219 91.4225 78.7844C90.7458 79.5469 89.7879 79.9281 88.5489 79.9281ZM95.8097 74.3954C96.3815 73.6901 97.1393 73.3375 98.0828 73.3375C99.3028 73.3375 99.9128 73.8426 99.9128 74.8529C99.9128 75.0149 99.8985 75.1912 99.8699 75.3819L99.3838 78.2697C99.3647 78.4222 99.3552 78.5271 99.3552 78.5843C99.3552 78.8607 99.4172 79.0751 99.5411 79.2276C99.6745 79.3801 99.8556 79.4563 100.084 79.4563L100.027 79.7852C99.36 79.7852 98.8596 79.6994 98.526 79.5278C98.202 79.3563 98.0399 79.0799 98.0399 78.6986C98.0399 78.6414 98.0495 78.5461 98.0685 78.4127L98.5975 75.2818C98.6166 75.1865 98.6261 75.0483 98.6261 74.8672C98.6261 74.181 98.2591 73.8378 97.5253 73.8378C96.8486 73.8378 96.2338 74.2906 95.681 75.196L94.909 79.7852H93.6223L94.523 74.3668C94.4372 74.3573 94.3276 74.3478 94.1942 74.3382C94.0608 74.3287 93.9512 74.3192 93.8654 74.3096C93.7796 74.3001 93.7034 74.2953 93.6366 74.2953L93.6938 73.9665C93.8749 73.9665 94.2466 73.8664 94.8089 73.6663C95.3713 73.4566 95.762 73.3518 95.9812 73.3518L95.8097 74.3954ZM103.586 74.3954C104.158 73.6901 104.916 73.3375 105.859 73.3375C107.079 73.3375 107.689 73.8426 107.689 74.8529C107.689 75.0149 107.675 75.1912 107.646 75.3819L107.16 78.2697C107.141 78.4222 107.132 78.5271 107.132 78.5843C107.132 78.8607 107.194 79.0751 107.318 79.2276C107.451 79.3801 107.632 79.4563 107.861 79.4563L107.804 79.7852C107.136 79.7852 106.636 79.6994 106.302 79.5278C105.978 79.3563 105.816 79.0799 105.816 78.6986C105.816 78.6414 105.826 78.5461 105.845 78.4127L106.374 75.2818C106.393 75.1865 106.403 75.0483 106.403 74.8672C106.403 74.181 106.036 73.8378 105.302 73.8378C104.625 73.8378 104.01 74.2906 103.457 75.196L102.685 79.7852H101.399L102.299 74.3668C102.214 74.3573 102.104 74.3478 101.971 74.3382C101.837 74.3287 101.728 74.3192 101.642 74.3096C101.556 74.3001 101.48 74.2953 101.413 74.2953L101.47 73.9665C101.651 73.9665 102.023 73.8664 102.585 73.6663C103.148 73.4566 103.539 73.3518 103.758 73.3518L103.586 74.3954ZM115.151 75.2675C115.151 75.5629 115.027 75.806 114.779 75.9966C114.541 76.1777 114.017 76.3254 113.207 76.4398L110.448 76.8115C110.448 77.5263 110.61 78.1363 110.934 78.6414C111.267 79.1371 111.687 79.3849 112.192 79.3849C113.031 79.3849 113.75 79.0703 114.351 78.4413L114.665 78.6129C114.312 79.0608 113.898 79.3944 113.421 79.6136C112.945 79.8233 112.34 79.9281 111.606 79.9281C110.91 79.9281 110.305 79.7232 109.79 79.3134C109.285 78.9035 109.032 78.2268 109.032 77.2833C109.032 76.1491 109.347 75.2103 109.976 74.4669C110.605 73.7235 111.467 73.3518 112.564 73.3518C113.45 73.3518 114.103 73.5519 114.522 73.9522C114.941 74.343 115.151 74.7814 115.151 75.2675ZM110.476 76.3683L112.606 76.0824C113.445 75.9775 113.864 75.6392 113.864 75.0673C113.864 74.7433 113.75 74.4478 113.521 74.181C113.302 73.9141 112.94 73.7807 112.435 73.7807C112.044 73.7807 111.649 74.0237 111.248 74.5098C110.857 74.9959 110.6 75.6154 110.476 76.3683ZM120.616 75.1674C120.616 74.9482 120.682 74.7814 120.816 74.667C120.949 74.5527 121.083 74.4955 121.216 74.4955C121.178 74.0189 120.73 73.7807 119.872 73.7807C119.205 73.7807 118.629 74.0761 118.142 74.667C117.666 75.2484 117.428 75.9918 117.428 76.8973C117.428 77.5835 117.594 78.1697 117.928 78.6557C118.271 79.1418 118.691 79.3849 119.186 79.3849C120.025 79.3849 120.744 79.0703 121.345 78.4413L121.659 78.6129C121.307 79.0608 120.892 79.3944 120.416 79.6136C119.939 79.8233 119.334 79.9281 118.6 79.9281C117.904 79.9281 117.299 79.7232 116.784 79.3134C116.279 78.9035 116.027 78.2268 116.027 77.2833C116.027 76.1491 116.37 75.2103 117.056 74.4669C117.742 73.7235 118.657 73.3518 119.801 73.3518C121.221 73.3518 121.931 73.7711 121.931 74.6099C121.931 74.8958 121.86 75.1293 121.717 75.3104C121.583 75.4915 121.402 75.582 121.173 75.582C120.802 75.582 120.616 75.4438 120.616 75.1674ZM125.784 71.4218L125.441 73.4947H126.671L126.599 73.9236H125.37L124.598 78.4699C124.579 78.6224 124.569 78.732 124.569 78.7987C124.569 79.1895 124.779 79.3849 125.198 79.3849C125.37 79.3849 125.556 79.3038 125.756 79.1418C125.966 78.9703 126.128 78.7368 126.242 78.4413L126.556 78.6129C126.204 79.4897 125.556 79.9281 124.612 79.9281C123.678 79.9281 123.211 79.5374 123.211 78.7558C123.211 78.6319 123.225 78.4985 123.254 78.3555L123.997 73.9236H122.997L123.068 73.4947C123.621 73.4947 124.102 73.2898 124.512 72.88C124.931 72.4606 125.184 71.9745 125.27 71.4218H125.784Z" fill="#0D7B03"/>
<defs>
<filter id="filter0_f_748_9919" x="-13.6492" y="-13.3367" width="207.298" height="148.029" filterUnits="userSpaceOnUse" color-interpolation-filters="sRGB">
<feFlood flood-opacity="0" result="BackgroundImageFix"/>
<feBlend mode="normal" in="SourceGraphic" in2="BackgroundImageFix" result="shape"/>
<feGaussianBlur stdDeviation="18.1684" result="effect1_foregroundBlur_748_9919"/>
</filter>
</defs>
</svg>
