<svg width="208" height="60" viewBox="0 0 208 60" fill="none" xmlns="http://www.w3.org/2000/svg">
<g clip-path="url(#clip0_661_2039)">
<path d="M88.6392 36.744L85.7112 39.768L85.3992 39.456C85.4792 39.376 85.5432 39.272 85.5912 39.144C85.6392 39.032 85.6312 38.952 85.5672 38.904L84.1752 37.608C82.5752 38.776 80.8312 39.36 78.9432 39.36C77.1032 39.36 75.4472 38.944 73.9752 38.112C72.5192 37.28 71.3752 36.16 70.5432 34.752C69.7272 33.344 69.3192 31.808 69.3192 30.144C69.3192 28.416 69.7192 26.824 70.5192 25.368C71.3352 23.896 72.4792 22.728 73.9512 21.864C75.4392 20.984 77.1432 20.544 79.0632 20.544C80.8552 20.544 82.4392 20.984 83.8152 21.864C85.2072 22.728 86.2792 23.896 87.0312 25.368C87.7992 26.824 88.1832 28.416 88.1832 30.144C88.1832 31.008 88.0232 31.896 87.7032 32.808C87.3992 33.704 86.9512 34.56 86.3592 35.376L87.7272 36.648C87.7432 36.664 87.7752 36.672 87.8232 36.672C87.9032 36.672 87.9912 36.648 88.0872 36.6C88.1832 36.536 88.2552 36.472 88.3032 36.408L88.6392 36.744ZM79.0152 36.336C80.1032 36.336 81.1032 36.088 82.0152 35.592L79.4952 33.264C79.4792 33.248 79.4472 33.24 79.3992 33.24C79.3192 33.24 79.2312 33.272 79.1352 33.336C79.0392 33.384 78.9672 33.44 78.9192 33.504L78.5832 33.168L81.5352 30.168L81.8472 30.48C81.7672 30.56 81.7032 30.664 81.6552 30.792C81.6072 30.904 81.6152 30.984 81.6792 31.032L84.3192 33.48C84.9592 32.488 85.2792 31.4 85.2792 30.216C85.2792 28.984 85.0072 27.856 84.4632 26.832C83.9352 25.792 83.1912 24.968 82.2312 24.36C81.2872 23.752 80.2152 23.448 79.0152 23.448C77.7832 23.448 76.6712 23.736 75.6792 24.312C74.6872 24.872 73.9112 25.656 73.3512 26.664C72.8072 27.672 72.5352 28.8 72.5352 30.048C72.5352 31.328 72.8152 32.448 73.3752 33.408C73.9352 34.352 74.7032 35.08 75.6792 35.592C76.6712 36.088 77.7832 36.336 79.0152 36.336Z" fill="#65BD5D"/>
<path d="M104.084 28.728C104.612 28.888 105.14 29.2 105.668 29.664C106.212 30.112 106.66 30.688 107.012 31.392C107.38 32.096 107.564 32.88 107.564 33.744C107.564 34.672 107.34 35.536 106.892 36.336C106.444 37.136 105.78 37.784 104.9 38.28C104.02 38.76 102.972 39 101.756 39H94.1479V38.544C94.2599 38.544 94.3719 38.52 94.4839 38.472C94.6119 38.424 94.6759 38.36 94.6759 38.28V21.72C94.6759 21.64 94.6119 21.576 94.4839 21.528C94.3719 21.48 94.2599 21.456 94.1479 21.456V21H99.6919C100.764 21 101.708 21.208 102.524 21.624C103.356 22.024 103.996 22.592 104.444 23.328C104.908 24.048 105.14 24.872 105.14 25.8C105.14 27 104.788 27.976 104.084 28.728ZM97.7959 23.832V28.08H99.3079C100.3 28.08 100.98 27.888 101.348 27.504C101.732 27.104 101.924 26.552 101.924 25.848C101.924 25.288 101.676 24.816 101.18 24.432C100.7 24.032 100.076 23.832 99.3079 23.832H97.7959ZM101.06 36.168C102.276 36.168 103.14 35.92 103.652 35.424C104.18 34.928 104.444 34.336 104.444 33.648C104.444 32.928 104.22 32.296 103.772 31.752C103.324 31.192 102.556 30.912 101.468 30.912H97.7959V36.168H101.06ZM113.19 21.72C113.19 21.64 113.126 21.576 112.998 21.528C112.87 21.48 112.742 21.456 112.614 21.456V21H117.03V21.456C116.902 21.456 116.774 21.48 116.646 21.528C116.518 21.576 116.454 21.64 116.454 21.72V38.28C116.454 38.36 116.518 38.424 116.646 38.472C116.774 38.52 116.902 38.544 117.03 38.544V39H112.614V38.544C112.742 38.544 112.87 38.52 112.998 38.472C113.126 38.424 113.19 38.36 113.19 38.28V21.72ZM131.218 39.24C129.506 39.24 127.93 38.84 126.49 38.04C125.05 37.224 123.914 36.104 123.082 34.68C122.25 33.24 121.834 31.64 121.834 29.88C121.834 28.024 122.25 26.384 123.082 24.96C123.914 23.536 125.034 22.44 126.442 21.672C127.85 20.888 129.394 20.496 131.074 20.496C132.69 20.496 134.05 20.784 135.154 21.36C136.274 21.92 137.33 22.712 138.322 23.736C138.354 23.768 138.402 23.784 138.466 23.784C138.562 23.784 138.73 23.712 138.97 23.568L139.258 23.928L135.946 26.544L135.658 26.184C135.754 26.12 135.826 26.04 135.874 25.944C135.938 25.832 135.938 25.752 135.874 25.704C135.202 25.048 134.498 24.552 133.762 24.216C133.042 23.864 132.162 23.688 131.122 23.688C130.034 23.688 129.034 23.96 128.122 24.504C127.21 25.032 126.49 25.768 125.962 26.712C125.434 27.656 125.17 28.712 125.17 29.88C125.17 31 125.45 32.024 126.01 32.952C126.57 33.864 127.314 34.584 128.242 35.112C129.17 35.64 130.162 35.904 131.218 35.904C132.21 35.904 133.058 35.736 133.762 35.4C134.466 35.048 135.13 34.528 135.754 33.84L135.802 33.744C135.802 33.664 135.762 33.576 135.682 33.48C135.618 33.368 135.546 33.288 135.466 33.24L135.778 32.904L139.354 35.904L139.066 36.264C138.97 36.184 138.85 36.112 138.706 36.048C138.562 35.984 138.466 35.984 138.418 36.048C137.41 37.136 136.354 37.944 135.25 38.472C134.146 38.984 132.802 39.24 131.218 39.24ZM152.666 39.384C150.81 39.384 149.146 38.96 147.674 38.112C146.218 37.248 145.082 36.112 144.266 34.704C143.466 33.28 143.066 31.776 143.066 30.192C143.066 28.592 143.45 27.056 144.218 25.584C144.986 24.096 146.098 22.888 147.554 21.96C149.01 21.032 150.714 20.568 152.666 20.568C154.57 20.568 156.242 21.008 157.682 21.888C159.122 22.768 160.226 23.944 160.994 25.416C161.762 26.872 162.146 28.464 162.146 30.192C162.146 31.728 161.762 33.208 160.994 34.632C160.242 36.04 159.146 37.184 157.706 38.064C156.266 38.944 154.586 39.384 152.666 39.384ZM152.69 36.216C153.89 36.216 154.962 35.968 155.906 35.472C156.866 34.96 157.61 34.248 158.138 33.336C158.682 32.408 158.954 31.36 158.954 30.192C158.954 28.96 158.698 27.856 158.186 26.88C157.674 25.904 156.938 25.136 155.978 24.576C155.018 24 153.882 23.712 152.57 23.712C151.37 23.712 150.298 24 149.354 24.576C148.426 25.136 147.698 25.912 147.17 26.904C146.642 27.896 146.378 28.992 146.378 30.192C146.378 31.44 146.682 32.52 147.29 33.432C147.914 34.344 148.706 35.04 149.666 35.52C150.642 35.984 151.65 36.216 152.69 36.216ZM180.973 38.376C181.037 38.488 181.253 38.544 181.621 38.544V39H176.749V38.544C176.973 38.544 177.125 38.504 177.205 38.424C177.285 38.344 177.293 38.264 177.229 38.184L173.197 31.392H170.725V38.28C170.725 38.36 170.789 38.424 170.917 38.472C171.045 38.52 171.165 38.544 171.277 38.544V39H166.957V38.544C167.069 38.544 167.189 38.52 167.317 38.472C167.445 38.424 167.509 38.36 167.509 38.28V21.72C167.509 21.64 167.445 21.576 167.317 21.528C167.205 21.48 167.093 21.456 166.981 21.456V21H174.301C176.413 21 178.005 21.48 179.077 22.44C180.165 23.384 180.709 24.608 180.709 26.112C180.709 27.504 180.325 28.624 179.557 29.472C178.805 30.32 177.829 30.888 176.629 31.176L180.973 38.376ZM170.725 23.784V28.488H174.661C175.653 28.488 176.397 28.256 176.893 27.792C177.389 27.328 177.637 26.768 177.637 26.112C177.637 25.472 177.357 24.928 176.797 24.48C176.237 24.016 175.549 23.784 174.733 23.784H170.725ZM202.397 21.456C202.285 21.456 202.165 21.48 202.037 21.528C201.909 21.576 201.845 21.64 201.845 21.72V38.28C201.845 38.36 201.901 38.424 202.013 38.472C202.141 38.52 202.261 38.544 202.373 38.544V39H198.149V38.544C198.533 38.544 198.653 38.44 198.509 38.232L189.989 26.472V38.28C189.989 38.36 190.053 38.424 190.181 38.472C190.309 38.52 190.437 38.544 190.565 38.544V39H186.173V38.544C186.301 38.544 186.429 38.52 186.557 38.472C186.685 38.424 186.749 38.36 186.749 38.28V21.72C186.749 21.64 186.685 21.576 186.557 21.528C186.445 21.48 186.333 21.456 186.221 21.456V21H190.565V21.456C190.181 21.456 190.061 21.56 190.205 21.768L198.965 33.912L198.653 21.72C198.653 21.64 198.581 21.576 198.437 21.528C198.309 21.48 198.189 21.456 198.077 21.456V21H202.397V21.456Z" fill="white"/>
<path d="M15.5591 5.61694C15.6816 5.13164 16.3711 5.13164 16.4936 5.61694C17.4909 9.56851 20.5764 12.654 24.528 13.6513C25.0133 13.7738 25.0133 14.4633 24.528 14.5858C20.5764 15.5831 17.4909 18.6686 16.4936 22.6202C16.3711 23.1055 15.6816 23.1055 15.5591 22.6202C14.5618 18.6686 11.4763 15.5831 7.52471 14.5858C7.03942 14.4633 7.03941 13.7738 7.52471 13.6513C11.4763 12.654 14.5618 9.56851 15.5591 5.61694Z" fill="white"/>
<path d="M29.625 3.45752C29.8537 2.55118 31.1415 2.55117 31.3703 3.45752L33.5195 11.9731C35.3821 19.3531 41.1446 25.1155 48.5245 26.9781L57.0401 29.1274C57.9464 29.3561 57.9464 30.6439 57.0401 30.8726L48.5245 33.0219C41.1446 34.8845 35.3821 40.6469 33.5195 48.0269L31.3703 56.5425C31.1415 57.4488 29.8537 57.4488 29.625 56.5425L27.4758 48.0269C25.6131 40.6469 19.8507 34.8845 12.4707 33.0219L3.95514 30.8726C3.0488 30.6439 3.04879 29.3561 3.95514 29.1274L12.4707 26.9781C19.8507 25.1155 25.6131 19.3531 27.4758 11.9731L29.625 3.45752Z" fill="#65BD5D"/>
<rect x="22.2418" y="27.3125" width="1.15508" height="5.19786" rx="0.57754" fill="white"/>
<rect x="23.9761" y="26.543" width="1.15508" height="6.73797" rx="0.57754" fill="white"/>
<rect x="25.7086" y="24.0391" width="1.15508" height="11.7433" rx="0.57754" fill="white"/>
<rect x="27.439" y="26.9297" width="1.15508" height="5.96791" rx="0.57754" fill="white"/>
<rect x="29.1734" y="22.5" width="1.15508" height="14.8235" rx="0.57754" fill="white"/>
<rect x="30.9058" y="25.5781" width="1.15508" height="8.6631" rx="0.57754" fill="white"/>
<rect x="32.6382" y="26.543" width="1.15508" height="6.73797" rx="0.57754" fill="white"/>
<rect x="34.3707" y="24.0391" width="1.15508" height="11.7433" rx="0.57754" fill="white"/>
<rect x="36.1031" y="27.1211" width="1.15508" height="5.58289" rx="0.57754" fill="white"/>
<rect x="37.8355" y="27.8906" width="1.15508" height="4.04278" rx="0.57754" fill="white"/>
<rect x="39.6754" y="28.3828" width="1.17647" height="3.05882" rx="0.588235" fill="white"/>
<rect width="1.17647" height="3.05882" rx="0.588235" transform="matrix(-1 0 0 1 21.5582 28.3828)" fill="white"/>
<rect x="41.5582" y="29.3203" width="1.17647" height="1.17647" rx="0.588235" fill="white"/>
<rect width="1.17647" height="1.17647" rx="0.588235" transform="matrix(-1 0 0 1 19.6754 29.3203)" fill="white"/>
</g>
<defs>
<clipPath id="clip0_661_2039">
<rect width="207.001" height="60" fill="white" transform="translate(0.499573)"/>
</clipPath>
</defs>
</svg>
