<svg xmlns="http://www.w3.org/2000/svg" width="29" height="24" viewBox="0 0 29 24" fill="none">
  <path d="M20.5996 7H4.99961C4.36309 7 3.75264 7.21071 3.30255 7.58579C2.85247 7.96086 2.59961 8.46957 2.59961 9V15C2.59961 15.5304 2.85247 16.0391 3.30255 16.4142C3.75264 16.7893 4.36309 17 4.99961 17H20.5996C21.2361 17 21.8466 16.7893 22.2967 16.4142C22.7468 16.0391 22.9996 15.5304 22.9996 15V9C22.9996 8.46957 22.7468 7.96086 22.2967 7.58579C21.8466 7.21071 21.2361 7 20.5996 7ZM20.5996 15H4.99961V9H20.5996V15ZM25.3996 10C25.0814 10 24.7761 10.1054 24.5511 10.2929C24.326 10.4804 24.1996 10.7348 24.1996 11V13C24.1996 13.2652 24.326 13.5196 24.5511 13.7071C24.7761 13.8946 25.0814 14 25.3996 14C25.7179 14 26.0231 13.8946 26.2481 13.7071C26.4732 13.5196 26.5996 13.2652 26.5996 13V11C26.5996 10.7348 26.4732 10.4804 26.2481 10.2929C26.0231 10.1054 25.7179 10 25.3996 10Z" fill="white"/>
  <path d="M6.19961 10H8.59961V14H6.19961V10Z" fill="white"/>
  <path d="M9.79961 10H12.1996V14H9.79961V10Z" fill="white"/>
</svg>