<svg width="21" height="21" viewBox="0 0 21 21" fill="none" xmlns="http://www.w3.org/2000/svg">
<path d="M7.25 7.4H7.4V7.25V2.91667V2.76667H7.25H2.91667H2.76667V2.91667V7.25V7.4H2.91667H7.25ZM18.0833 18.2333H18.2333V18.0833V13.75V13.6H18.0833H13.75H13.6V13.75V18.0833V18.2333H13.75H18.0833ZM1.83333 0.9H8.33333C8.58087 0.9 8.81827 0.998333 8.9933 1.17337C9.16833 1.3484 9.26667 1.5858 9.26667 1.83333V8.33333C9.26667 8.58087 9.16833 8.81827 8.9933 8.9933C8.81827 9.16833 8.58087 9.26667 8.33333 9.26667H1.83333C1.5858 9.26667 1.3484 9.16833 1.17337 8.9933C0.998333 8.81827 0.9 8.58087 0.9 8.33333V1.83333C0.9 1.5858 0.998333 1.3484 1.17337 1.17337C1.3484 0.998333 1.5858 0.9 1.83333 0.9ZM12.6667 11.7333H19.1667C19.4142 11.7333 19.6516 11.8317 19.8266 12.0067C20.0017 12.1817 20.1 12.4191 20.1 12.6667V19.1667C20.1 19.4142 20.0017 19.6516 19.8266 19.8266C19.6516 20.0017 19.4142 20.1 19.1667 20.1H12.6667C12.4191 20.1 12.1817 20.0017 12.0067 19.8266C11.8317 19.6516 11.7333 19.4142 11.7333 19.1667V12.6667C11.7333 12.4191 11.8317 12.1817 12.0067 12.0067C12.1817 11.8317 12.4191 11.7333 12.6667 11.7333ZM11.7333 5.08333C11.7333 2.77634 13.6097 0.9 15.9167 0.9C18.2237 0.9 20.1 2.77634 20.1 5.08333C20.1 7.39032 18.2237 9.26667 15.9167 9.26667C13.6097 9.26667 11.7333 7.39032 11.7333 5.08333ZM13.6 5.08333C13.6 6.36109 14.6389 7.4 15.9167 7.4C17.1944 7.4 18.2333 6.36109 18.2333 5.08333C18.2333 3.80557 17.1944 2.76667 15.9167 2.76667C14.6389 2.76667 13.6 3.80557 13.6 5.08333ZM0.9 15.9167C0.9 13.6097 2.77634 11.7333 5.08333 11.7333C7.39032 11.7333 9.26667 13.6097 9.26667 15.9167C9.26667 18.2237 7.39032 20.1 5.08333 20.1C2.77634 20.1 0.9 18.2237 0.9 15.9167ZM2.76667 15.9167C2.76667 17.1944 3.80557 18.2333 5.08333 18.2333C6.36109 18.2333 7.4 17.1944 7.4 15.9167C7.4 14.6389 6.36109 13.6 5.08333 13.6C3.80557 13.6 2.76667 14.6389 2.76667 15.9167Z" fill="white" stroke="white" stroke-width="0.3"/>
</svg>
