<svg width="26" height="27" viewBox="0 0 26 27" fill="none" xmlns="http://www.w3.org/2000/svg">
<path d="M23.2005 8.35072L23.2006 8.35078C23.3464 8.4314 23.4679 8.54956 23.5526 8.693C23.6373 8.83644 23.682 8.99994 23.6822 9.16651C23.6824 9.33305 23.638 9.49661 23.5536 9.64021C23.4693 9.78382 23.348 9.90223 23.2025 9.98317L23.2024 9.98322L13.4762 15.3999L13.476 15.4C13.3373 15.4776 13.1811 15.5182 13.0222 15.518C12.8633 15.5179 12.7071 15.4769 12.5686 15.3991L12.5683 15.3989L2.79446 9.9389L2.79442 9.93887C2.64913 9.85777 2.52816 9.7393 2.44405 9.59573C2.35993 9.45216 2.31573 9.28871 2.31602 9.12232C2.3163 8.95592 2.36107 8.79263 2.44567 8.64935C2.53027 8.50608 2.65164 8.38803 2.79719 8.30742C2.7972 8.30742 2.79721 8.30741 2.79722 8.30741L12.5231 2.93423C12.6615 2.85796 12.817 2.81797 12.9751 2.81797C13.133 2.81797 13.2884 2.85792 13.4268 2.93412C13.4269 2.93415 13.4269 2.93419 13.427 2.93423L23.2005 8.35072ZM12.9507 13.4736L13.0237 13.5143L13.0968 13.4737L20.5913 9.30065L20.8272 9.16928L20.591 9.0384L13.0467 4.85781L12.9741 4.81758L12.9014 4.85773L5.40801 8.99823L5.17168 9.12881L5.40741 9.26047L12.9507 13.4736Z" fill="white" stroke="white" stroke-width="0.3"/>
<path d="M12.9263 17.81L12.9992 17.8504L13.072 17.81L22.1654 12.7587L23.0707 14.39L13.4517 19.7339C13.3131 19.8109 13.1572 19.8513 12.9986 19.8513C12.8401 19.8513 12.6841 19.8109 12.5455 19.7339L2.92662 14.3901L3.83286 12.7587L12.9263 17.81Z" fill="white" stroke="white" stroke-width="0.3"/>
<path d="M12.9263 22.142L12.9992 22.1825L13.072 22.142L22.1654 17.0907L23.0707 18.7221L13.4517 24.0659C13.3131 24.1429 13.1572 24.1833 12.9986 24.1833C12.8401 24.1833 12.6841 24.1429 12.5455 24.0659L2.92662 18.7221L3.83286 17.0907L12.9263 22.142Z" fill="white" stroke="white" stroke-width="0.3"/>
</svg>
