   <svg
                  xmlns="http://www.w3.org/2000/svg"
                  width="28"
                  height="24"
                  viewBox="0 0 28 24"
                  fill="none"
                >
                  <path
                    d="M13.9998 14.999C13.3075 14.999 12.6308 15.1749 12.0553 15.5046C11.4797 15.8342 11.0311 16.3028 10.7662 16.8509C10.5013 17.3991 10.432 18.0023 10.567 18.5843C10.7021 19.1662 11.0354 19.7007 11.5249 20.1203C12.0144 20.5399 12.638 20.8256 13.3169 20.9413C13.9959 21.0571 14.6996 20.9977 15.3392 20.7706C15.9787 20.5436 16.5253 20.159 16.9099 19.6657C17.2945 19.1723 17.4998 18.5923 17.4998 17.999C17.4998 17.2033 17.131 16.4403 16.4746 15.8777C15.8183 15.3151 14.928 14.999 13.9998 14.999ZM13.9998 18.999C13.769 18.999 13.5435 18.9403 13.3516 18.8305C13.1597 18.7206 13.0102 18.5644 12.9219 18.3817C12.8336 18.1989 12.8105 17.9979 12.8555 17.8039C12.9005 17.6099 13.0116 17.4317 13.1748 17.2919C13.338 17.152 13.5458 17.0568 13.7722 17.0182C13.9985 16.9796 14.233 16.9994 14.4462 17.0751C14.6594 17.1508 14.8416 17.279 14.9698 17.4434C15.098 17.6079 15.1664 17.8012 15.1664 17.999C15.1664 18.2642 15.0435 18.5186 14.8247 18.7061C14.6059 18.8936 14.3092 18.999 13.9998 18.999ZM13.9998 10.999C11.8353 11.0054 9.76074 11.7418 8.22476 13.049C8.00747 13.2363 7.8855 13.4898 7.8855 13.754C7.8855 14.0182 8.00747 14.2716 8.22476 14.459C8.44335 14.6452 8.73904 14.7498 9.04726 14.7498C9.35548 14.7498 9.65117 14.6452 9.86976 14.459C10.4116 13.9934 11.0553 13.6239 11.764 13.3719C12.4727 13.1198 13.2325 12.99 13.9998 12.99C14.767 12.99 15.5268 13.1198 16.2355 13.3719C16.9442 13.6239 17.5879 13.9934 18.1298 14.459C18.3452 14.6474 18.6387 14.7552 18.9464 14.759C19.1831 14.7707 19.4184 14.7202 19.6208 14.6144C19.8233 14.5086 19.9833 14.3525 20.0796 14.1668C20.1759 13.9811 20.2039 13.7746 20.1598 13.5749C20.1158 13.3752 20.0018 13.1918 19.8331 13.049C19.0655 12.3957 18.1552 11.8784 17.1543 11.5267C16.1534 11.1749 15.0815 10.9956 13.9998 10.999ZM13.9998 6.99899C10.5977 7.00673 7.33643 8.1637 4.92309 10.219C4.81432 10.3122 4.72803 10.4229 4.66916 10.5447C4.61029 10.6666 4.57999 10.7971 4.57999 10.929C4.57999 11.1953 4.70341 11.4507 4.92309 11.639C5.14278 11.8273 5.44074 11.9331 5.75143 11.9331C6.06211 11.9331 6.36007 11.8273 6.57976 11.639C8.54851 9.95358 11.2173 9.0069 13.9998 9.0069C16.7823 9.0069 19.451 9.95358 21.4198 11.639C21.5288 11.7317 21.6581 11.805 21.8002 11.8548C21.9423 11.9045 22.0946 11.9297 22.2481 11.929C22.4016 11.9297 22.5538 11.9045 22.696 11.8548C22.8381 11.805 22.9674 11.7317 23.0764 11.639C23.1858 11.546 23.2726 11.4354 23.3318 11.3136C23.391 11.1917 23.4215 11.061 23.4215 10.929C23.4215 10.797 23.391 10.6663 23.3318 10.5444C23.2726 10.4225 23.1858 10.3119 23.0764 10.219C20.6631 8.1637 17.4018 7.00673 13.9998 6.99899ZM26.3781 7.38898C24.7529 5.99509 22.8232 4.88934 20.6993 4.13491C18.5754 3.38049 16.2988 2.99219 13.9998 2.99219C11.7007 2.99219 9.42414 3.38049 7.30021 4.13491C5.17628 4.88934 3.2466 5.99509 1.62143 7.38898C1.40174 7.57729 1.27832 7.83268 1.27832 8.09899C1.27832 8.36529 1.40174 8.62068 1.62143 8.80899C1.84111 8.99729 2.13908 9.10308 2.44976 9.10308C2.76045 9.10308 3.05841 8.99729 3.27809 8.80899C6.12217 6.37247 9.97868 5.00376 13.9998 5.00376C18.0208 5.00376 21.8774 6.37247 24.7214 8.80899C24.8299 8.90271 24.9589 8.97711 25.1011 9.02788C25.2433 9.07865 25.3957 9.10478 25.5498 9.10478C25.7038 9.10478 25.8563 9.07865 25.9984 9.02788C26.1406 8.97711 26.2696 8.90271 26.3781 8.80899C26.4874 8.71602 26.5742 8.60542 26.6335 8.48356C26.6927 8.3617 26.7232 8.231 26.7232 8.09899C26.7232 7.96697 26.6927 7.83627 26.6335 7.71441C26.5742 7.59255 26.4874 7.48195 26.3781 7.38898Z"
                    fill="#5FD3A7"
                  />
                </svg>